<?xml version="1.0" encoding="UTF-8" standalone="no"?>
<svg
   xmlns:dc="http://purl.org/dc/elements/1.1/"
   xmlns:cc="http://creativecommons.org/ns#"
   xmlns:rdf="http://www.w3.org/1999/02/22-rdf-syntax-ns#"
   xmlns:svg="http://www.w3.org/2000/svg"
   xmlns="http://www.w3.org/2000/svg"
   viewBox="0 0 960 267.84"
   height="267.84"
   width="960"
   id="svg21"
   version="1.1">
  <metadata
     id="metadata27">
    <rdf:RDF>
      <cc:Work
         rdf:about="">
        <dc:format>image/svg+xml</dc:format>
        <dc:type
           rdf:resource="http://purl.org/dc/dcmitype/StillImage" />
        <dc:title></dc:title>
      </cc:Work>
    </rdf:RDF>
  </metadata>
  <defs
     id="defs25" />
  <path
     id="path3737"
     d="m 0,267.71692 v -0.13106 L 58.381997,133.87293 116.76399,0.16 128.55912,0.07617 140.35424,-0.00766 198.70562,133.67617 257.057,267.36 l 0.13287,0.24401 0.13286,0.24402 -11.61919,-0.084 -11.6192,-0.084 -46.80127,-107.36 -46.80128,-107.359996 -3.50366,-8.80295 -3.50365,-8.802951 -1.92384,-5.757049 -1.92383,-5.75705 -0.35131,-1.380698 -0.35131,-1.380697 -0.34136,0.113785 -0.34135,0.113785 -0.77682,2.706912 -0.77681,2.706913 -1.14636,3.36 -1.14635,3.36 -2.17939,5.684166 -2.17939,5.684167 L 117.46433,50.9642 114.8923,57.12 68.996874,162.4 23.101443,267.68 11.550722,267.76399 0,267.84798 Z M 292.98085,134.48387 234.77261,1.12 234.49505,0.56 234.21748,0 245.82874,0.0085 257.44,0.017 l 46.72,107.23386 46.72,107.23386 3.11014,7.71759 3.11018,7.7176 1.75696,4.96 1.75699,4.96 1.00288,3.29666 1.00291,3.29666 0.32064,-0.10688 0.32064,-0.10689 1.43674,-4.62977 1.43674,-4.62978 2.05308,-5.47776 2.05306,-5.47775 2.67386,-6.52225 2.67388,-6.52225 45.52724,-104.64 45.52723,-104.64 0.80025,-1.84 0.80023,-1.84 H 480 491.75635 l 0.80045,1.84 0.80045,1.84 45.52707,104.64 45.52704,104.64 2.67386,6.52224 2.67382,6.52225 2.05306,5.47775 2.05308,5.47776 1.43991,4.64 1.4399,4.64 h 0.38298 0.38301 l 0.78147,-2.72 0.78147,-2.72 0.97526,-2.88 0.9753,-2.88 2.1999,-5.76 2.19991,-5.76 1.90688,-4.64 1.90688,-4.64 L 655.89904,107.1285 702.56,0.017097 l 11.61126,-0.0086 11.61127,-0.0086 -0.27757,0.56 -0.27757,0.56 -58.20825,133.363873 -58.20823,133.36386 -11.66019,-0.0839 L 585.49053,267.68 539.45846,162.08 493.4264,56.48 490.82694,50.24 488.22746,44 485.73997,37.44 483.25248,30.88 481.7657,26.086144 480.27894,21.292287 480.13949,21.15281 480,21.013333 l -0.13949,0.139477 -0.13945,0.139477 -1.48676,4.793857 -1.48678,4.793856 -2.48749,6.56 -2.48749,6.56 -2.59971,6.24 -2.59968,6.24 -46.03187,105.6 -46.03184,105.6 -11.66016,0.0839 -11.66019,0.0839 z M 702.80944,267.60401 702.94157,267.36 761.29424,133.67617 819.64688,-0.007663 831.44144,0.076167 843.236,0.16 901.61802,133.87293 960,267.58586 v 0.13106 0.13106 l -11.55104,-0.084 L 936.89792,267.68 891.0025,162.4 845.10704,57.12 l -2.57168,-6.155834 -2.57171,-6.155833 -2.17939,-5.684167 -2.1794,-5.684166 -1.14636,-3.36 -1.14634,-3.36 -0.77683,-2.706913 -0.7768,-2.706912 -0.34135,-0.113785 -0.34137,-0.113785 -0.3513,1.380697 -0.35133,1.380698 -1.92384,5.75705 -1.9238,5.757049 -3.50413,8.802951 -3.50413,8.80295 -46.80083,107.36 -46.80083,107.36 -11.61917,0.084 -11.61917,0.084 z"
     style="fill:#000000;stroke-width:0.31999999" />
</svg>
