<?xml version="1.0" encoding="UTF-8"?>
<svg width="20px" height="18px" viewBox="0 0 20 18" version="1.1" xmlns="http://www.w3.org/2000/svg" xmlns:xlink="http://www.w3.org/1999/xlink">
    <title>Icons/Suitcase</title>
    <defs>
        <path d="M13.3892377,0 C13.9645234,0 14.4323096,0.468437639 14.4323096,1.04307185 L14.4323096,1.04307185 L14.4323096,3.67974379 L17.1986325,3.67974379 C18.0644929,3.67974379 18.7642176,4.37946844 18.7642176,5.24272278 L18.7642176,5.24272278 L18.7642176,15.2747155 C18.7642176,16.1399244 18.0644929,16.839649 17.1986325,16.839649 L17.1986325,16.839649 L1.56232748,16.839649 C0.699724651,16.839649 0,16.1399244 0,15.2747155 L0,15.2747155 L0,5.24272278 C0,4.37946844 0.699724651,3.67974379 1.56232748,3.67974379 L1.56232748,3.67974379 L4.3312565,3.67974379 L4.3312565,1.04307185 C4.3312565,0.468437639 4.79969414,0 5.37497986,0 L5.37497986,0 Z M12.3481204,2.08679521 L6.41609717,2.08679521 L6.41609717,3.67974379 L12.3481204,3.67974379 L12.3481204,2.08679521 Z" id="path-1"></path>
    </defs>
    <g id="07--1-UI-Desktop-AWA" stroke="none" stroke-width="1" fill="none" fill-rule="evenodd">
        <g id="Colors/Primary-(Accent)" transform="translate(0.617891, 0.580175)">
            <mask id="mask-2" fill="white">
                <use xlink:href="#path-1"></use>
            </mask>
            <use id="Mask" fill="#000000" xlink:href="#path-1"></use>
        </g>
    </g>
</svg>