<?xml version="1.0" encoding="UTF-8"?>
<svg width="20px" height="20px" viewBox="0 0 20 20" version="1.1" xmlns="http://www.w3.org/2000/svg" xmlns:xlink="http://www.w3.org/1999/xlink">
    <title>Icons/building</title>
    <defs>
        <path d="M18.0472263,15.640917 C18.6692741,15.640917 19.1752715,16.1470642 19.1752715,16.7689123 L19.1752715,18.0471639 C19.1752715,18.6692117 18.6692741,19.1752091 18.0472263,19.1752091 L1.12804527,19.1752091 C0.505997465,19.1752091 0,18.6692117 0,18.0471639 L0,16.7689123 C0,16.1470642 0.505997465,15.640917 1.12804527,15.640917 L18.0472263,15.640917 Z M5.3390148,7.369334 L5.3390148,13.2346201 L7.82056459,13.2346201 L7.82056459,7.369334 L11.354707,7.369334 L11.354707,13.2346201 L13.8362567,13.2346201 L13.8362567,7.369334 L17.3705489,7.369334 L17.3705489,7.369334 L17.3705489,14.5130714 L1.80472263,14.5130714 L1.80472263,7.369334 L5.3390148,7.369334 Z M9.30969421,0.0732929813 C9.48212184,-0.0244309938 9.6931497,-0.0244309938 9.86557734,0.0732929813 L9.86557734,0.0732929813 L18.8892903,5.18659885 C19.3921918,5.47158134 19.1879552,6.24128873 18.6113488,6.24128873 L18.6113488,6.24128873 L0.563922764,6.24128873 C-0.0140319044,6.24128873 -0.215721805,5.47098211 0.285981198,5.18659885 L0.285981198,5.18659885 Z" id="path-1"></path>
    </defs>
    <g id="07--1-UI-Desktop-AWA" stroke="none" stroke-width="1" fill="none" fill-rule="evenodd">
        <g id="🎨-Color" transform="translate(0.412364, 0.412395)">
            <mask id="mask-2" fill="white">
                <use xlink:href="#path-1"></use>
            </mask>
            <use id="Mask" fill="#000000" xlink:href="#path-1"></use>
        </g>
    </g>
</svg>