<?xml version="1.0" encoding="UTF-8"?>
<svg width="19px" height="21px" viewBox="0 0 19 21" version="1.1" xmlns="http://www.w3.org/2000/svg" xmlns:xlink="http://www.w3.org/1999/xlink">
    <title>Icons/Person Filled</title>
    <defs>
        <path d="M1,20 C0.44771525,20 0,19.5522847 0,19 L0,17 C0,13.9352916 4.83098067,12 9,12 C13.1690193,12 18,13.9352916 18,17 L18,19 C18,19.5522847 17.5522847,20 17,20 C16.4477153,20 1.55228475,20 1,20 Z M14,5 C14,7.76228475 11.7622847,10 9,10 C6.23771525,10 4,7.76228475 4,5 C4,2.23771525 6.23771525,0 9,0 C11.7622847,0 14,2.23771525 14,5 Z" id="path-1"></path>
    </defs>
    <g id="07--1-UI-Desktop-AWA" stroke="none" stroke-width="1" fill="none" fill-rule="evenodd">
        <g id="Icons/Person-Filled" transform="translate(0.412364, 0.412395)">
            <mask id="mask-2" fill="white">
                <use xlink:href="#path-1"></use>
            </mask>
            <use id="Mask" fill="#000000" fill-rule="nonzero" xlink:href="#path-1"></use>
        </g>
    </g>
</svg>